<svg xmlns="http://www.w3.org/2000/svg" viewBox="0 0 1100.8 237">
  <defs>
    <style>
      .a {
        fill: #6390b1;
      }

      .b {
        fill: #002f5f;
      }
    </style>
  </defs>
  <g>
    <polygon class="a" points="62.8 35 12.2 80.6 36.9 80.6 62.8 51.6 62.8 35"/>
    <polygon class="a" points="62.8 18.1 0.2 18.1 0.2 80.6 11.9 80.6 62.8 18.7 62.8 18.1"/>
    <polygon class="a" points="62.8 65 44.4 80.6 62.8 80.6 62.8 65"/>
    <polygon class="a" points="62.6 116.1 62.6 91.7 23.9 125.8 59 86.4 37.6 86.4 13.4 106.9 31.7 86.4 0 86.4 0 149 62.6 149 62.6 120.9 43.7 137.2 62.6 116.1"/>
    <polygon class="a" points="102.4 86.4 69.1 115.2 69.1 140.9 117.7 86.4 102.4 86.4"/>
    <polygon class="a" points="69.1 108.7 89 86.4 69.1 86.4 69.1 108.7"/>
    <polygon class="a" points="69.1 149 131.7 149 131.7 87.7 69.1 141 69.1 149"/>
    <rect class="b" x="76.9" width="73.9" height="74"/>
    <g>
      <g>
        <path class="b" d="M234.5,30.3c16.2,38.6,41.1,99.2,49.9,117a48.8,48.8,0,0,0-17.6,0c-3.1-11.5-11.1-29.8-17.1-44.6-7.1-.2-14.4-.3-21.7-.3-6.8,0-13.4.2-20.2.3-7,17.1-13.3,34.1-16.1,44.6a26.9181,26.9181,0,0,0-6.1-.8,26.215,26.215,0,0,0-6.1.8c17.7-38.9,34.9-77.7,51.8-117Zm-5.4,22.5L211,95.1c5.8,0,12.1.3,17.9.3,6.1,0,12.4-.2,18.6-.3Z"/>
        <path class="b" d="M337.4,74.8c-15.4,0-22.4,10-22.4,27.3v14.1c0,10,.3,21.6,1.3,31.1a35.5563,35.5563,0,0,0-15,0c1-9.5,1.3-21.1,1.3-31.1V98.9c0-10-.3-21.6-1.3-31.1a38.234,38.234,0,0,0,7.5.8,36.5574,36.5574,0,0,0,6.6-.8c-.3,4.5-.5,8.8-.5,13.3h.3c6.1-9.5,14.6-15,26.5-15,12.3,0,26.5,6,26.5,28.9,0,9.5-.7,19.5-.7,30.8,0,7.3,0,14.3.3,21.5a34.17,34.17,0,0,0-7-.8,31.5607,31.5607,0,0,0-6.8.8c.3-12.1,1.2-24.3,1.2-37.1V100.1C355.4,83.7,348.3,74.8,337.4,74.8Z"/>
        <path class="b" d="M394.4,131.3c2.3,4.5,9.4,11.5,18.7,11.5,8.3,0,16.1-5.2,16.1-15,0-20.6-39.1-8.5-39.1-36.6,0-14.5,9.9-25.1,27.5-25.1,8.1,0,13.3,3,18.4,4.7a46.9943,46.9943,0,0,0-4,11.8h-2a15.2493,15.2493,0,0,0-14.6-10.3c-6.5,0-14.1,4.2-14.1,14,0,21.6,39.1,8.3,39.1,36.4,0,12.6-11.4,26.3-29.8,26.3a40.8985,40.8985,0,0,1-21.4-5.5c1.3-2.8,3.1-8.8,3.1-12.1h2.1Z"/>
        <path class="b" d="M449.7,67.8a41.294,41.294,0,0,0,7.8.8,39.24,39.24,0,0,0,7.6-.8,616.8125,616.8125,0,0,0,21.2,63.7c5.1-12.6,15.7-42.9,21.9-63.7a17.401,17.401,0,0,0,5,.8,14.3512,14.3512,0,0,0,4.6-.8c5.5,21,13.1,41.6,21,63.7,5.6-14.3,16.2-42.8,23.5-63.7a19.46,19.46,0,0,0,5.3.8,16.3625,16.3625,0,0,0,5-.8c-12.4,26.6-23.5,53.1-33,79.5a19.2835,19.2835,0,0,0-4.3-.8,18.2638,18.2638,0,0,0-4.3.8,558.8642,558.8642,0,0,0-21.2-61.7c-5.5,13.3-15.7,41.6-21.9,61.7a13.6247,13.6247,0,0,0-9.2,0C473.5,129.8,460.6,94.2,449.7,67.8Z"/>
        <path class="b" d="M620.9,66.1c23.2,0,34.3,15.5,34.3,33.9,0,2.2-.2,4.3-.3,6.5-11.9-.2-23.7-.5-35.4-.5-7.3,0-14.4.3-21.7.5a38.5317,38.5317,0,0,0-.2,4.7c0,17.3,10.3,30.8,28.7,30.8,8.8,0,19-5.2,24.8-11.8l.8.5-1,8.2c-6.6,5.3-17.4,10.1-27.7,10.1-23.9,0-40.2-17-40.2-39.1C583,82.9,596.6,66.1,620.9,66.1Zm-22.8,34.1c6.8.2,14.6.5,21.5.5,7.3,0,15.1-.3,22-.5,0-11.8-3.1-28.8-20.4-28.8C605,71.4,598.9,88.2,598.1,100.2Z"/>
        <path class="b" d="M707.9,81.4c-1.2-1.3-4.8-2.7-8.1-2.7-10.6,0-16.9,10.1-16.9,23.1,0,28.9,0,37.8.7,45.4a30.5,30.5,0,0,0-6.6-.8,34.9668,34.9668,0,0,0-7,.8c.7-8.2.7-21.1.7-39.8v-5.3c0-8.7,0-20.1-.7-34.4a34.1688,34.1688,0,0,0,7,.8,29.0737,29.0737,0,0,0,6.6-.8,138.3848,138.3848,0,0,0-.8,16.1l.3.2c6.3-12,14.2-18,21.9-18a13.0569,13.0569,0,0,1,5.3,1c-1.2,2.7-1.2,9-1.2,13.5Z"/>
        <path class="b" d="M746.8,45.5h.8c-.7,8.3-1,16.5-1.3,24.6,2.3,0,9.9-.2,17.6-.5a20.5541,20.5541,0,0,0-.2,3.5,20.5541,20.5541,0,0,0,.2,3.5c-5.8-.3-13.6-.3-17.6-.3-.3,1.7-1.2,27.8-1.2,42.3,0,12.5.3,25.1,13.4,25.1a30.6624,30.6624,0,0,0,7.5-1.2v4a42.1692,42.1692,0,0,1-12.8,2.5c-13.7,0-20.4-7.8-20.4-20.8,0-12.1,1-27.1,1.2-51.9-3.3,0-7,0-11.3.3a24.3293,24.3293,0,0,0,.3-3.8c0-1.2-.2-2.2-.3-3.3,5,.3,8.6.5,10.9.5-.2-4.3-.3-11.5-.7-18.6Z"/>
        <path class="b" d="M782,69.3c0-15.3-.3-36.8-1.3-47.9a38.234,38.234,0,0,0,7.5.8,38.234,38.234,0,0,0,7.5-.8c-1,11.1-1.3,32.6-1.3,47.1V81.1h.3c6.1-9.5,14.6-15,26.5-15,12.3,0,26.5,6,26.5,28.9,0,9.5-.7,19.5-.7,30.8,0,7.3,0,14.3.3,21.5a34.17,34.17,0,0,0-7-.8,31.5607,31.5607,0,0,0-6.8.8c.3-12.1,1.2-24.3,1.2-37.1V100.1c0-16.3-7.1-25.3-18.1-25.3-15.4,0-22.4,10-22.4,27.3,0,12.6.3,34.1,1.3,45.3a35.5563,35.5563,0,0,0-15,0c1-11.1,1.3-32.6,1.3-47.9V69.3Z"/>
        <path class="b" d="M883,30.3a8.5006,8.5006,0,1,1-8.4,8.5A8.4722,8.4722,0,0,1,883,30.3Zm-6.2,68.6c0-10-.3-21.6-1.3-31.1a35.5562,35.5562,0,0,0,15,0c-1,9.5-1.3,21.1-1.3,31.1v17.3c0,10,.3,21.6,1.3,31.1a35.5563,35.5563,0,0,0-15,0c1-9.5,1.3-21.1,1.3-31.1Z"/>
        <path class="b" d="M956.2,74.8c-15.4,0-22.4,10-22.4,27.3v14.1c0,10,.3,21.6,1.3,31.1a35.5563,35.5563,0,0,0-15,0c1-9.5,1.3-21.1,1.3-31.1V98.9c0-10-.3-21.6-1.3-31.1a38.234,38.234,0,0,0,7.5.8,36.5584,36.5584,0,0,0,6.6-.8c-.3,4.5-.5,8.8-.5,13.3h.3c6.1-9.5,14.6-15,26.5-15,12.3,0,26.5,6,26.5,28.9,0,9.5-.7,19.5-.7,30.8,0,7.3,0,14.3.3,21.5a34.17,34.17,0,0,0-7-.8,30.8417,30.8417,0,0,0-6.8.8c.3-12.1,1.2-24.3,1.2-37.1V100.1C974.2,83.7,967.1,74.8,956.2,74.8Z"/>
        <path class="b" d="M1015.3,69.3c0-15.3-.3-36.8-1.3-47.9a38.234,38.234,0,0,0,7.5.8,38.234,38.234,0,0,0,7.5-.8c-1,11.1-1.3,32.6-1.3,47.9V99.6c0,2,.7,3.2,2,3.2,1.7,0,3.8-1.8,6.5-3.8,4-3,20.2-19.3,30.5-31.1a24.092,24.092,0,0,0,6.3.8,64.3214,64.3214,0,0,0,8.3-.8c-13.7,11.1-26.7,22.3-38.1,33.4,12.6,15.3,26.3,30.8,39.9,46.1a71.3533,71.3533,0,0,0-9.4-.8,47.7748,47.7748,0,0,0-8.4.8c-9.6-12.6-25.5-31.3-33.3-39.6-.7-.8-1.7-1.7-2.5-1.7-1,0-1.7.7-1.7,2v10a287.1958,287.1958,0,0,0,1.3,29.3,35.5563,35.5563,0,0,0-15,0c1-11.1,1.3-32.6,1.3-47.9V69.3Z"/>
      </g>
      <g>
        <path class="b" d="M195.4,228.2h-9.3c-.8,2.4-1.5,4.2-1.8,5.3a24.3242,24.3242,0,0,0-.9,3l-1.9-.2-1.9.2L191,208.9l1.5.1,1.5-.1,11.1,27.6a14.1588,14.1588,0,0,1-1.9-.1,11.4493,11.4493,0,0,0-1.5-.1,14.158,14.158,0,0,0-1.9.1,11.4493,11.4493,0,0,1-1.5.1c-.6-1.9-1-3.3-1.4-4.3C196.3,230.7,195.8,229.4,195.4,228.2Zm-8.2-2.4h7.3l-3.5-9.3Z"/>
        <path class="b" d="M220.4,236.5V209.2a10.9014,10.9014,0,0,1,1.7.1,8.33,8.33,0,0,0,1.2.1h1.1c1.1-.1,1.8-.2,1.9-.2V220c.9,0,2.1,0,3.6.1,1.4.1,2.3.1,2.5.1h2.3c2.3-.1,3.6-.2,3.8-.2V209.2a10.9014,10.9014,0,0,1,1.7.1,8.33,8.33,0,0,0,1.2.1h1.1c1.1-.1,1.8-.2,1.9-.2v27.3h-1.1c-1.1-.1-1.8-.2-1.9-.2a10.9014,10.9014,0,0,0-1.7.1,8.33,8.33,0,0,1-1.2.1V223.2h-2.3c-2.3-.1-3.6-.2-3.8-.2-.9,0-2.1,0-3.6.1s-2.3.1-2.5.1v13.3h-1.1c-1.1-.1-1.8-.2-1.9-.2a10.9014,10.9014,0,0,0-1.7.1A8.33,8.33,0,0,1,220.4,236.5Z"/>
        <path class="b" d="M264.6,228.2h-9.3c-.8,2.4-1.5,4.2-1.8,5.3a24.3242,24.3242,0,0,0-.9,3l-1.9-.2-1.9.2,11.4-27.6,1.5.1,1.5-.1,11.1,27.6a14.16,14.16,0,0,1-1.9-.1,11.4493,11.4493,0,0,0-1.5-.1,14.1588,14.1588,0,0,0-1.9.1,11.4493,11.4493,0,0,1-1.5.1c-.6-1.9-1-3.3-1.4-4.3C265.6,230.7,265.1,229.4,264.6,228.2Zm-8.2-2.4h7.3l-3.5-9.3Z"/>
        <path class="b" d="M298.2,231.7l.5.2-.9,3.4a14.7375,14.7375,0,0,1-3.7,1.3,19,19,0,0,1-4.1.4,15.92,15.92,0,0,1-10.7-3.6,12.1876,12.1876,0,0,1-4.3-9.8c0-4.9,1.6-8.8,4.7-11.4a16.7864,16.7864,0,0,1,11.2-3.7,20.0732,20.0732,0,0,1,4.2.5,13.1574,13.1574,0,0,1,3.9,1.5c-.1.5-.3,1.2-.5,1.9-.2.8-.3,1.5-.5,2.2h-.6a7.2938,7.2938,0,0,0-2.9-2.6,7.1068,7.1068,0,0,0-3.7-1,7.961,7.961,0,0,0-7.1,3.9,15.2643,15.2643,0,0,0-2.1,8.3c0,3.5.8,6.3,2.5,8.4a8.3807,8.3807,0,0,0,7,3.2,10.7973,10.7973,0,0,0,3.8-.8A27.4871,27.4871,0,0,0,298.2,231.7Z"/>
        <path class="b" d="M303.3,236.5V209.2a10.9014,10.9014,0,0,1,1.7.1,8.33,8.33,0,0,0,1.2.1h1.1c1.1-.1,1.8-.2,1.9-.2v12.4c3.8-4.4,7.3-8.6,10.3-12.4a6.1514,6.1514,0,0,0,1.3.1c.4,0,.7.1.9.1a3.42,3.42,0,0,0,1.1-.1c.3,0,.6-.1,1-.1v.3l-6.5,6.8-3.8,4.2,10.7,15.4v.6h-1.1c-1.1-.1-1.8-.2-1.9-.2a10.9014,10.9014,0,0,0-1.7.1,8.3287,8.3287,0,0,1-1.2.1l-9-12.6v12.6h-1.1c-1.1-.1-1.8-.2-1.9-.2a10.9014,10.9014,0,0,0-1.7.1A9.2856,9.2856,0,0,1,303.3,236.5Z"/>
        <path class="b" d="M327.9,209.2H343a2.7686,2.7686,0,0,0-.1.9c0,.3-.1.6-.1.8a2.4852,2.4852,0,0,0,.1.8,3.4445,3.4445,0,0,1,.1.9c-1.4-.2-2.7-.3-4.2-.4-1.4-.1-3.1-.1-5-.1v8.5h4.1a16.2731,16.2731,0,0,0,2.4-.1,14.8669,14.8669,0,0,0,2.5-.3,2.7686,2.7686,0,0,0-.1.9c0,.3-.1.6-.1.8a2.4852,2.4852,0,0,0,.1.8,3.4439,3.4439,0,0,1,.1.9,14.3623,14.3623,0,0,0-2.4-.2,22.6319,22.6319,0,0,0-2.5-.1h-4.1v10.1c1.9,0,3.5,0,5-.1,1.4-.1,2.8-.2,4.2-.4a2.7686,2.7686,0,0,0-.1.9c0,.3-.1.6-.1.8a2.4852,2.4852,0,0,0,.1.8,3.4445,3.4445,0,0,1,.1.9H327.9Z"/>
        <path class="b" d="M359.4,212.1v24.5h-1.1c-1.1-.1-1.8-.2-1.9-.2a10.9014,10.9014,0,0,0-1.7.1,8.33,8.33,0,0,1-1.2.1V212.1c-1.4,0-2.6,0-3.7.1-1,.1-2.3.2-3.7.4a3.7513,3.7513,0,0,0,.1-1c0-.3.1-.5.1-.7a3.0828,3.0828,0,0,0-.1-1,1.9523,1.9523,0,0,1-.1-.7h20.5a3.7549,3.7549,0,0,0-.1,1c0,.3-.1.5-.1.7a3.0828,3.0828,0,0,0,.1,1,1.9541,1.9541,0,0,1,.1.7c-1.9-.2-3.1-.4-3.5-.4C361.8,212.1,360.6,212.1,359.4,212.1Z"/>
        <path class="b" d="M382.5,212.1v24.5h-1.1c-1.1-.1-1.8-.2-1.9-.2a10.9014,10.9014,0,0,0-1.7.1,8.3306,8.3306,0,0,1-1.2.1V212.1c-1.4,0-2.6,0-3.7.1-1,.1-2.3.2-3.7.4a3.7513,3.7513,0,0,0,.1-1c0-.3.1-.5.1-.7a3.0828,3.0828,0,0,0-.1-1,1.9523,1.9523,0,0,1-.1-.7h20.5a3.7513,3.7513,0,0,0-.1,1c0,.3-.1.5-.1.7a3.0858,3.0858,0,0,0,.1,1,1.9523,1.9523,0,0,1,.1.7c-1.9-.2-3.1-.4-3.5-.4C384.9,212.1,383.7,212.1,382.5,212.1Z"/>
        <path class="b" d="M429.1,224.2v11c-2.1.6-4,1-5.6,1.3a28.2509,28.2509,0,0,1-5,.5,17.8522,17.8522,0,0,1-11.1-3.3c-3.2-2.4-4.8-5.8-4.8-10.3,0-4.7,1.6-8.5,4.8-11.2a17.5991,17.5991,0,0,1,11.6-3.8,20.1484,20.1484,0,0,1,5,.6,16.5934,16.5934,0,0,1,4.6,1.9,11.9829,11.9829,0,0,0-1.1,4h-.6a8.9249,8.9249,0,0,0-3.4-3,9.56,9.56,0,0,0-4.4-1.1,8.5919,8.5919,0,0,0-7.4,3.8,15.3482,15.3482,0,0,0-2.5,8.9c0,3.4.8,6.1,2.5,8.1a8.5858,8.5858,0,0,0,7,2.9,7.8038,7.8038,0,0,0,2.4-.3,15.3855,15.3855,0,0,0,1.9-.8v-9.3a10.9014,10.9014,0,0,1,1.7.1,8.3306,8.3306,0,0,0,1.2.1H427C428.3,224.3,428.9,224.2,429.1,224.2Z"/>
        <path class="b" d="M435.4,236.5V209.2h8.5c1.8,0,3.2,0,4,.1a6.652,6.652,0,0,1,2.4.7,6.0436,6.0436,0,0,1,3.5,5.7,6.9508,6.9508,0,0,1-1.7,4.7,8.3082,8.3082,0,0,1-4.5,2.5c1,1.8,2.5,4.1,4.3,7q1.8,2.85,2.7,4.2l1.6,2.5a15.5565,15.5565,0,0,1-2-.1,13.613,13.613,0,0,0-1.6-.1,15.5565,15.5565,0,0,0-2,.1,13.5821,13.5821,0,0,1-1.5.1l-4.7-8.3-2.6-4.4h-.4v12.8h-1.1c-1.1-.1-1.8-.2-1.9-.2a10.9014,10.9014,0,0,0-1.7.1A10.2873,10.2873,0,0,0,435.4,236.5Zm6-25.1V222h1c3.5,0,5.2-1.9,5.2-5.7a15.0294,15.0294,0,0,0-.2-2,3.0374,3.0374,0,0,0-1.8-2.5,8.2806,8.2806,0,0,0-3.1-.4Z"/>
        <path class="b" d="M488,222.7a13.508,13.508,0,0,1-4.2,10.1c-2.9,2.8-6.7,4.2-11.5,4.2-4.5,0-8.1-1.2-10.7-3.7-2.7-2.5-4-6-4-10.4a13.4857,13.4857,0,0,1,4.1-10.1c2.9-2.8,6.7-4.2,11.6-4.2,5.1,0,9,1.6,11.6,4.8A13.58,13.58,0,0,1,488,222.7Zm-14.9-11.8a7.5746,7.5746,0,0,0-6.5,3.2c-1.6,2.2-2.3,5.5-2.3,9.9a13.0167,13.0167,0,0,0,1.9,7.3,7.1236,7.1236,0,0,0,6.4,3.4,7.4478,7.4478,0,0,0,6.7-3.9,16.9944,16.9944,0,0,0,2.1-8.9,13.3608,13.3608,0,0,0-1.9-7.4A7.2077,7.2077,0,0,0,473.1,210.9Z"/>
        <path class="b" d="M493.4,225.4V209.2a10.9014,10.9014,0,0,1,1.7.1,8.33,8.33,0,0,0,1.2.1h1.1c1.1-.1,1.8-.2,1.9-.2v16.1a15.2625,15.2625,0,0,0,.3,3,9.9431,9.9431,0,0,0,.7,2.4,5.7936,5.7936,0,0,0,1.4,1.9,6.4436,6.4436,0,0,0,4.5,1.7,7.71,7.71,0,0,0,4.4-1.1,8.4781,8.4781,0,0,0,2.7-3.7,12.2,12.2,0,0,0,.6-3.3c.1-1.4.1-3.1.1-5v-12l1.6.1,1.6-.1v14.1a24.9567,24.9567,0,0,1-.6,6.4,8.6681,8.6681,0,0,1-3.7,5.1,10.1946,10.1946,0,0,1-3.5,1.6,18.4058,18.4058,0,0,1-4.1.5,16.1524,16.1524,0,0,1-7-1.4,8.2042,8.2042,0,0,1-4.5-5.3,14.4294,14.4294,0,0,1-.5-2.4A9.2463,9.2463,0,0,0,493.4,225.4Z"/>
        <path class="b" d="M530.2,224.5v12h-1.1c-1.1-.1-1.8-.2-1.9-.2a10.9014,10.9014,0,0,0-1.7.1,8.33,8.33,0,0,1-1.2.1V209.2h9.8c5.7,0,8.5,2.2,8.5,6.7,0,3.3-1.2,5.6-3.5,7C537.2,224,534.3,224.5,530.2,224.5Zm0-13.1v10.9h1.4a10.5038,10.5038,0,0,0,1.3-.2,4.088,4.088,0,0,0,2.7-2.1,6.71,6.71,0,0,0,.8-3.3,6.5632,6.5632,0,0,0-1.1-3.8,3.1369,3.1369,0,0,0-2.6-1.5Z"/>
        <path class="b" d="M578.9,231.7l.5.2-.9,3.4a14.7382,14.7382,0,0,1-3.7,1.3,19.0018,19.0018,0,0,1-4.1.4,15.92,15.92,0,0,1-10.7-3.6,12.1876,12.1876,0,0,1-4.3-9.8c0-4.9,1.6-8.8,4.7-11.4a16.7864,16.7864,0,0,1,11.2-3.7,20.0732,20.0732,0,0,1,4.2.5,13.1574,13.1574,0,0,1,3.9,1.5c-.1.5-.3,1.2-.5,1.9-.2.8-.3,1.5-.5,2.2h-.6a7.2935,7.2935,0,0,0-2.9-2.6,7.1065,7.1065,0,0,0-3.7-1,7.961,7.961,0,0,0-7.1,3.9,15.2634,15.2634,0,0,0-2.1,8.3c0,3.5.8,6.3,2.5,8.4a8.3807,8.3807,0,0,0,7,3.2,10.7973,10.7973,0,0,0,3.8-.8A27.4938,27.4938,0,0,0,578.9,231.7Z"/>
        <path class="b" d="M612.8,222.7a13.5076,13.5076,0,0,1-4.2,10.1c-2.9,2.8-6.7,4.2-11.5,4.2-4.5,0-8.1-1.2-10.7-3.7-2.7-2.5-4-6-4-10.4a13.4854,13.4854,0,0,1,4.1-10.1c2.9-2.8,6.7-4.2,11.6-4.2,5.1,0,9,1.6,11.6,4.8A13.58,13.58,0,0,1,612.8,222.7Zm-14.9-11.8a7.5746,7.5746,0,0,0-6.5,3.2c-1.6,2.2-2.3,5.5-2.3,9.9a13.0167,13.0167,0,0,0,1.9,7.3,7.1236,7.1236,0,0,0,6.4,3.4,7.4478,7.4478,0,0,0,6.7-3.9,16.9944,16.9944,0,0,0,2.1-8.9,13.3608,13.3608,0,0,0-1.9-7.4A7.0974,7.0974,0,0,0,597.9,210.9Z"/>
        <path class="b" d="M632.3,227.9c1.1-2.2,2.1-4.1,3-5.8,1.1-2.1,2.1-4.2,3.1-6.2,1.4-2.9,2.5-5.1,3.1-6.6a3.751,3.751,0,0,0,1,.1c.3,0,.5.1.7.1a2.4861,2.4861,0,0,0,.8-.1,3.4441,3.4441,0,0,1,.9-.1c.4,3.4.8,6.7,1.2,10.1.6,5.2,1,8.2,1.1,9,.3,2.5.8,5.2,1.3,8.2a13.5709,13.5709,0,0,1-1.8-.1,11.4493,11.4493,0,0,0-1.5-.1,12.1342,12.1342,0,0,0-1.8.1,10.3287,10.3287,0,0,1-1.4.1,74.937,74.937,0,0,0-.6-8.8c-.4-3.4-.8-6.6-1.1-9.7-1,2-2,4.1-3,6.1s-2,4-3,6.1c-.7,1.4-1.6,3.4-2.9,6.2a3.7517,3.7517,0,0,0-1-.1,1.7591,1.7591,0,0,0-.6.1q-1.35-2.85-2.7-5.7c-1.1-2.3-2.1-4.3-2.9-6-1-2.1-2.1-4.1-3.1-6.2-.4,3-.7,5.2-.8,6.6-.3,2.2-.5,4.3-.6,6.2s-.2,3.7-.2,5.4a4.4849,4.4849,0,0,0-1.1-.1c-.3,0-.6-.1-.8-.1a3.0828,3.0828,0,0,0-1,.1c-.3,0-.5.1-.8.1.5-2.6.9-5.4,1.4-8.4.3-1.7.7-4.7,1.3-9s1.1-7.6,1.4-9.9a3.7513,3.7513,0,0,0,1,.1c.3,0,.5.1.7.1a3.0828,3.0828,0,0,0,1-.1,1.9523,1.9523,0,0,1,.7-.1c.7,1.5,1.6,3.5,2.9,6.2,1,2.1,2,4.1,3.1,6.2C630.2,223.8,631.3,225.8,632.3,227.9Z"/>
        <path class="b" d="M659.1,224.5v12H658c-1.1-.1-1.8-.2-1.9-.2a10.9,10.9,0,0,0-1.7.1,8.33,8.33,0,0,1-1.2.1V209.2H663c5.7,0,8.5,2.2,8.5,6.7,0,3.3-1.2,5.6-3.5,7C666.1,224,663.1,224.5,659.1,224.5Zm0-13.1v10.9h1.4a10.5066,10.5066,0,0,0,1.3-.2,4.088,4.088,0,0,0,2.7-2.1,6.71,6.71,0,0,0,.8-3.3,6.5632,6.5632,0,0,0-1.1-3.8,3.1366,3.1366,0,0,0-2.6-1.5Z"/>
        <path class="b" d="M686.4,228.2h-9.3c-.8,2.4-1.5,4.2-1.8,5.3a24.3242,24.3242,0,0,0-.9,3l-1.9-.2-1.9.2L682,208.9l1.5.1,1.5-.1,11.1,27.6a14.158,14.158,0,0,1-1.9-.1,11.4511,11.4511,0,0,0-1.5-.1,14.158,14.158,0,0,0-1.9.1,11.4511,11.4511,0,0,1-1.5.1c-.6-1.9-1-3.3-1.4-4.3C687.3,230.7,686.8,229.4,686.4,228.2Zm-8.2-2.4h7.3l-3.5-9.3Z"/>
        <path class="b" d="M699.8,236.4V209.2h3.9c1.7,1.9,3.6,3.9,5.7,6.1,1.1,1.2,3.1,3.3,5.8,6.2,2.7,3,4.6,5,5.7,6.2V209.1l1.6.1,1.6-.1v27.3h-3.4c-2.3-2.5-4.5-5-6.7-7.5-2.3-2.6-4.6-5-6.7-7.2l-4.3-4.5v19.3l-1.6-.2Z"/>
        <path class="b" d="M737.2,236.5V225c-.8-1.4-1.9-3.4-3.2-5.8-3.2-6-5-9.4-5.3-9.9a15.5565,15.5565,0,0,1,2,.1,13.5847,13.5847,0,0,0,1.5.1,15.5565,15.5565,0,0,0,2-.1,13.5847,13.5847,0,0,1,1.5-.1l3.4,7.1q1.05,2.1,1.5,3a10.1615,10.1615,0,0,0,1,1.8,28.2561,28.2561,0,0,0,3-5.3c.6-1.2,1.6-3.4,3-6.5l1.9.1,1.9-.1c-.8,1.5-1.8,3.2-2.9,5-1,1.6-1.9,3.3-2.9,4.9-.8,1.5-1.7,3.2-2.6,5.1v12.3h-1.1c-1.1-.1-1.8-.2-1.9-.2a10.9014,10.9014,0,0,0-1.7.1A6.6136,6.6136,0,0,0,737.2,236.5Z"/>
      </g>
      <path class="b" d="M1091.8,30.3a9,9,0,1,1-9,9A9.0915,9.0915,0,0,1,1091.8,30.3Zm0,17a8.0006,8.0006,0,1,0-7.9-8A7.9384,7.9384,0,0,0,1091.8,47.3Zm-3.3-10.4c0-1.1-.1-2.5-.2-3.4a14.7687,14.7687,0,0,0,2.1.1c.7,0,1.4-.1,2-.1,1.8,0,3.2.8,3.2,2.5,0,2.1-2.2,3-3.4,3.1,1.3,1.6,3.4,4.6,4.4,5.4v.1a5.05,5.05,0,0,0-2,0c-1.2-1.8-2.6-3.6-4-5.4h-.8V41c0,1.2.1,2.4.1,3.6a2.4857,2.4857,0,0,0-.8-.1,1.95,1.95,0,0,0-.8.1c.1-1.2.2-2.3.2-3.5V36.9Zm1.3,1.8c.2,0,.6.1,1.1.1,1.7,0,3.2-.7,3.2-2.5a2.1044,2.1044,0,0,0-2.3-2.1c-.6,0-1.2.1-1.7.1a19.2879,19.2879,0,0,0-.1,2.4v2Z"/>
    </g>
  </g>
</svg>
